<svg xmlns="http://www.w3.org/2000/svg" width="153.373" height="35.947">
  <path fill="#231f20" d="M30.58 11.764 29.828.004c-.094-.283-.557-.285-.565 0-.047 2.54-4.525.409-6.116.048C9.316-3.1 0 8.002 0 17.223c0 11.948 7.903 18.442 18.065 18.442 8.093 0 12.187-5.174 13.503-10.773.165-.703-.625-.557-.8 0-2.447 7.81-8.515 9.781-11.526 9.737-6.54-.094-12.622-5.365-12.845-17.406-.283-15.338 17.04-25.377 23.619-5.646.139.423.47.518.565.187"/>
  <path fill="#231f20" d="M36.227 13.649c3.575-1.506 13.267-1.037 13.267 3.386V30.63c0 3.719 3.67 4.99 4.703 2.495.329-.331.896-.094.613.471-.659 2.633-7.151 3.057-9.409-.471-12.467 9.08-20.42-8.797-5.505-9.081 4.656-.706 5.174-3.385 5.174-5.27 0-4.656-2.446-5.079-3.904-5.079-1.554 0-2.822.47-3.671 2.871-1.315 4.796-8.513.516-1.268-2.916zm3.198 20.933c2.963.378 5.598-2.305 5.598-4.94v-6.398c-12.654 4.658-8.703 11.15-5.598 11.338"/>
  <path fill="#231f20" d="m61.395 13.177-6.07.798c-.374.095-.374.284.33.472 1.319.048 2.166.94 2.166 2.87v14.16c0 1.696-2.377 3.18-2.87 3.386-1.13.472.565.378.565.378h9.926c.328 0 1.363.094.046-.516-1.504-.565-3.15-1.789-3.15-3.247V20.845c0-4.469 2.917-6.916 5.786-6.916 3.01 0 5.506.658 5.506 6.87v10.679c0 1.552-2.026 2.963-3.107 3.341-.705.188-.99.422-.376.422h10.585c.565.047.8-.14.282-.281-2.54-.99-2.868-2.87-2.868-3.482V19.056c0-7.103-6.825-6.161-9.221-6.161-3.012.046-6.211 1.927-6.54 2.774-.097-2.303-.376-2.539-.99-2.492m60.363 20.324c-1.033 1.787-3.575 2.211-6.726 2.211-5.98 0-10.873-4.612-10.873-10.916 0-5.597 3.157-11.901 11.2-11.901 7.246 0 7.199 4.843 7.199.799V6.59c0-3.67-1.459-4.752-2.589-5.08-1.646-.565-3.765-.66-.375-.66L125.9.71c-.38.095.422.095.422.659v27.755c0 1.93.708 4.893 3.812 5.74.282.049.61.236.282.33l-6.87.753c-.987.096-1.412-.378-1.834-2.305m-6.07.94c3.748 0 6.258-1.458 6.258-10.208 0-8.327-2.51-10.35-6.258-10.35-3.747 0-6.786 4.858-6.786 10.443 0 5.586 3.039 10.115 6.786 10.115"/>
  <path fill="#231f20" d="M85.907 13.622c3.575-1.502 13.268-1.034 13.268 3.388v13.596c0 3.716 3.67 4.987 4.703 2.494.33-.33.896-.093.612.47-.659 2.637-7.148 3.059-9.409-.47-12.468 9.081-20.417-8.797-5.502-9.08 4.656-.704 5.172-3.386 5.172-5.271 0-4.655-2.446-5.078-3.904-5.078-1.552 0-2.823.47-3.67 2.87-1.317 4.796-8.515.518-1.27-2.919zm3.2 20.937c2.964.377 5.597-2.308 5.597-4.94V23.22C82.05 27.88 86 34.371 89.107 34.56m45.683-20.89c3.575-1.504 13.265-1.033 13.265 3.389v13.593c0 3.72 3.672 4.99 4.706 2.498.328-.33.896-.097.612.469-.658 2.635-7.149 3.057-9.409-.47-12.466 9.079-20.42-8.799-5.505-9.08 4.658-.708 5.177-3.388 5.177-5.27 0-4.659-2.448-5.083-3.907-5.083-1.552 0-2.822.471-3.669 2.871-1.317 4.8-8.515.518-1.27-2.916zm3.198 20.936c2.965.377 5.601-2.305 5.601-4.94V23.27c-12.656 4.656-8.705 11.148-5.601 11.336"/>
  <path fill="#ee293d" d="M129.284 11.247V.711h5.175v10.536h-5.175m16.656 0V.711h5.175v10.536h-5.175M139.483 2.9l.738-1.505.735 1.451c.092.153.164.14.313.067l.63-.313-.411 2.026c-.087.396.14.513.385.244l.899-.961.236.544c.084.166.204.142.363.11l.929-.196-.31 1.174-.007.025c-.038.154-.11.283.06.355l.333.165-1.915 1.621c-.197.202-.13.264-.054.49l.177.544-1.787-.325c-.221-.054-.372-.054-.38.123l.076 2.05h-.54l.071-2.042c0-.204-.15-.198-.513-.125l-1.648.319.21-.544c.076-.209.094-.35-.073-.49l-1.955-1.596.359-.22c.104-.08.112-.165.055-.343l-.364-1.191.94.202c.265.06.336 0 .404-.148l.262-.539.93 1.054c.166.195.398.065.325-.216l-.448-2.195.693.398c.11.066.227.086.292-.043l-.01.03"/>
</svg>

