<svg xmlns="http://www.w3.org/2000/svg" xml:space="preserve" viewBox="0 0 98.2 35.35" width="138.9" height="50">
  <linearGradient id="a" x1="2.114" x2="2.114" y1="35.125" y2="25.518" gradientUnits="userSpaceOnUse">
    <stop offset="0" stop-color="#00a963"/>
    <stop offset=".993" stop-color="#55b74d"/>
  </linearGradient>
  <path fill="url(#a)" d="M0 28.8v6.3h4.2v-9.6H2.1z"/>
  <linearGradient id="b" x1="15.094" x2="15.094" y1="35.125" y2="2.276" gradientUnits="userSpaceOnUse">
    <stop offset="0" stop-color="#00a963"/>
    <stop offset=".993" stop-color="#55b74d"/>
  </linearGradient>
  <path fill="url(#b)" d="m18.8 5.9.5-.2v-3l-.5.2-4.6-.6v5.9l-3.3 8v18.9H18V16.2l-3.4-8V5.5z"/>
  <linearGradient id="c" x1="7.555" x2="7.555" y1="35.125" y2="18.396" gradientUnits="userSpaceOnUse">
    <stop offset="0" stop-color="#00a963"/>
    <stop offset=".993" stop-color="#55b74d"/>
  </linearGradient>
  <path fill="url(#c)" d="M5.4 23v12.1h4.3V18.4H7.6z"/>
  <linearGradient id="d" x1="7.555" x2="7.555" y1="35.125" y2="29.601" gradientUnits="userSpaceOnUse">
    <stop offset="0" stop-color="#006334"/>
    <stop offset=".993" stop-color="#00a963"/>
  </linearGradient>
  <path fill="url(#d)" d="M9.7 29.6c-1.3.7-2.7 1.2-4.2 1.7v3.8h4.2v-5.5z"/>
  <linearGradient id="e" x1="2.114" x2="2.114" y1="35.125" y2="31.608" gradientUnits="userSpaceOnUse">
    <stop offset="0" stop-color="#006334"/>
    <stop offset=".993" stop-color="#00a963"/>
  </linearGradient>
  <path fill="url(#e)" d="M4.2 31.6c-1.3.3-2.7.5-4.2.6v2.9h4.2v-3.5z"/>
  <linearGradient id="f" x1="14.424" x2="14.424" y1="35.125" y2="21.197" gradientUnits="userSpaceOnUse">
    <stop offset="0" stop-color="#006334"/>
    <stop offset=".993" stop-color="#00a963"/>
  </linearGradient>
  <path fill="url(#f)" d="M18 21.2c-1.3 2.5-3.5 5.5-7.1 7.7v6.2H18V21.2z"/>
  <path fill="#13773d" d="M16.2 16.9c0 1-.8 1.8-1.8 1.8s-1.8-.8-1.8-1.8.8-1.8 1.8-1.8c1 .1 1.8.8 1.8 1.8z"/>
  <path d="M62.4 18.4h1.7v7.5h-1.7v-7.5zm2.8 2.1h1.4v.8c.4-.6 1-.9 1.7-.9 1.6 0 2 .9 2 2.2V26h-1.5v-3.1c0-.9-.3-1.3-1-1.3-.8 0-1.2.5-1.2 1.6v2.9h-1.5v-5.6zm9 5.4h-1.7l-1.9-5.5h1.6l1.1 3.7 1.1-3.7h1.5l-1.7 5.5zm3.5-2.3c0 1 .5 1.4 1.3 1.4.6 0 1.1-.4 1.2-.7h1.3c-.4 1.3-1.3 1.8-2.6 1.8-1.7 0-2.8-1.2-2.8-2.9 0-1.6 1.1-2.9 2.8-2.9 1.9 0 2.8 1.6 2.6 3.2h-3.8zm2.5-1c-.1-.8-.5-1.2-1.2-1.2-.9 0-1.2.7-1.2 1.2h2.4zm3.3 1.5c0 .7.6.9 1.1.9.4 0 1-.2 1-.7 0-.5-.6-.6-1.7-.8-.9-.2-1.7-.5-1.7-1.5 0-1.4 1.2-1.8 2.4-1.8s2.3.4 2.4 1.7h-1.4c0-.6-.5-.7-1-.7-.3 0-.8.1-.8.5 0 .5.8.6 1.7.8.9.2 1.7.5 1.7 1.5 0 1.4-1.2 1.9-2.5 1.9s-2.5-.5-2.6-1.9h1.4zm6.2-3.6h1.1v1h-1.1v2.7c0 .5.1.6.6.6h.5V26c-.3 0-.6.1-.9.1-.9 0-1.7-.2-1.7-1.3v-3.2h-.9v-1h.9V19h1.5v1.5zm3.1-.9h-1.5v-1.2h1.5v1.2zm-1.5.9h1.5V26h-1.5v-5.5zm2.5 0h1.4v1c.3-.7 1-1.2 1.7-1.2.1 0 .2 0 .3.1v1.4c-.1 0-.4-.1-.5-.1-1.1 0-1.5.8-1.5 1.8V26h-1.5v-5.5zm-28 6.9c2.3 0 3.7 1.7 3.7 4 0 2.2-1.4 3.9-3.7 3.9-2.3 0-3.7-1.7-3.7-3.9s1.4-4 3.7-4zm0 6.5c1.5 0 2-1.3 2-2.5 0-1.3-.6-2.6-2-2.6-1.5 0-2 1.3-2 2.6s.5 2.5 2 2.5zm6.4-4.2h1.1v1h-1.1v2.7c0 .5.1.6.6.6h.5v1.2c-.3 0-.6.1-.9.1-.9 0-1.7-.2-1.7-1.3v-3.2h-.9v-1h.9V28h1.5v1.7z" class="st7"/>
  <path d="M75.7 29.7h1.1v1h-1.1v2.7c0 .5.1.6.6.6h.5v1.2c-.3 0-.6.1-.9.1-.9 0-1.7-.2-1.7-1.3v-3.2h-.9v-1h.9V28h1.5v1.7zm1.5 1.7c.1-1.4 1.3-1.8 2.6-1.8 1.1 0 2.4.2 2.4 1.5v2.8c0 .5.1 1 .2 1.2h-1.5c-.1-.2-.1-.3-.1-.5-.5.5-1.2.7-1.8.7-1 0-1.9-.5-1.9-1.6 0-1.2.9-1.5 1.9-1.7.9-.1 1.8-.1 1.8-.7s-.4-.7-1-.7-.9.2-1 .8h-1.6zm3.5 1.1c-.3.2-.8.2-1.2.3-.5.1-.9.3-.9.8 0 .6.4.7.9.7 1.2 0 1.2-.9 1.2-1.3v-.5zm8.6 2.6h-1.5l-1-3.7-.9 3.7h-1.6l-1.7-5.5h1.6l1 3.7.9-3.7h1.5l.9 3.7 1-3.7H91l-1.7 5.5zm2.1-3.7c.1-1.4 1.3-1.8 2.6-1.8 1.1 0 2.4.2 2.4 1.5v2.8c0 .5.1 1 .2 1.2H95c-.1-.2-.1-.3-.1-.5-.5.5-1.2.7-1.8.7-1 0-1.9-.5-1.9-1.6 0-1.2.9-1.5 1.9-1.7.9-.1 1.8-.1 1.8-.7s-.4-.7-1-.7-.9.2-1 .8h-1.5zm3.5 1.1c-.3.2-.8.2-1.2.3-.5.1-.9.3-.9.8 0 .6.4.7.9.7 1.2 0 1.2-.9 1.2-1.3v-.5zM21.3 18.4H23v7.5h-1.7v-7.5zm2.8 2.1h1.4v.8c.4-.6 1-.9 1.7-.9 1.6 0 2 .9 2 2.2V26h-1.5v-3.1c0-.9-.3-1.3-1-1.3-.8 0-1.2.5-1.2 1.6v2.9H24v-5.6zm9.2 5.4h-1.7l-1.9-5.5h1.6l1.1 3.7 1.1-3.7H35l-1.7 5.5zm3.6-2.3c0 1 .5 1.4 1.3 1.4.6 0 1.1-.4 1.2-.7h1.3c-.4 1.3-1.3 1.8-2.6 1.8-1.7 0-2.8-1.2-2.8-2.9 0-1.6 1.1-2.9 2.8-2.9 1.9 0 2.8 1.6 2.6 3.2h-3.8zm2.4-1c-.1-.8-.5-1.2-1.2-1.2-.9 0-1.2.7-1.2 1.2h2.4zm3.5 1.5c0 .7.6.9 1.1.9.4 0 1-.2 1-.7 0-.5-.6-.6-1.7-.8-.9-.2-1.7-.5-1.7-1.5 0-1.4 1.2-1.8 2.4-1.8s2.3.4 2.4 1.7h-1.4c0-.6-.5-.7-1-.7-.3 0-.8.1-.8.5 0 .5.8.6 1.7.8.9.2 1.7.5 1.7 1.5 0 1.4-1.2 1.9-2.5 1.9s-2.5-.5-2.6-1.9h1.4zm6.2-3.6h1.1v1H49v2.7c0 .5.1.6.6.6h.5V26c-.3 0-.6.1-.9.1-.9 0-1.7-.2-1.7-1.3v-3.2h-.9v-1h.9V19H49v1.5zm-24.3 6.9c2.3 0 3.7 1.7 3.7 4 0 2.2-1.4 3.9-3.7 3.9-2.3 0-3.7-1.7-3.7-3.9s1.4-4 3.7-4zm0 6.5c1.5 0 2-1.3 2-2.5 0-1.3-.6-2.6-2-2.6-1.5 0-2 1.3-2 2.6s.5 2.5 2 2.5zm6.4-4.2h1.1v1h-1.1v2.7c0 .5.1.6.6.6h.5v1.2c-.3 0-.6.1-.9.1-.9 0-1.7-.2-1.7-1.3v-3.2h-.9v-1h.9V28h1.5v1.7zm3.5 0h1.1v1h-1.1v2.7c0 .5.1.6.6.6h.5v1.2c-.3 0-.6.1-.9.1-.9 0-1.7-.2-1.7-1.3v-3.2h-.9v-1h.9V28h1.5v1.7zm1.5 1.7c.1-1.4 1.3-1.8 2.6-1.8 1.1 0 2.4.2 2.4 1.5v2.8c0 .5.1 1 .2 1.2h-1.5c-.1-.2-.1-.3-.1-.5-.5.5-1.2.7-1.8.7-1 0-1.9-.5-1.9-1.6 0-1.2.9-1.5 1.9-1.7.9-.1 1.8-.1 1.8-.7s-.4-.7-1-.7-.9.2-1 .8h-1.6zm3.5 1.1c-.3.2-.8.2-1.2.3-.5.1-.9.3-.9.8 0 .6.4.7.9.7 1.2 0 1.2-.9 1.2-1.3v-.5zm8.6 2.6h-1.5l-1-3.7-.9 3.7h-1.5l-1.7-5.5h1.6l1 3.7.9-3.7h1.5l.9 3.7 1-3.7H50l-1.8 5.5zm2.1-3.7c.1-1.4 1.3-1.8 2.6-1.8 1.1 0 2.4.2 2.4 1.5v2.8c0 .5.1 1 .2 1.2H54c-.1-.2-.1-.3-.1-.5-.5.5-1.2.7-1.8.7-1 0-1.9-.5-1.9-1.6 0-1.2.9-1.5 1.9-1.7.9-.1 1.8-.1 1.8-.7s-.4-.7-1-.7-.9.2-1 .8h-1.6zm3.5 1.1c-.3.2-.8.2-1.2.3-.5.1-.9.3-.9.8 0 .6.4.7.9.7 1.2 0 1.2-.9 1.2-1.3v-.5z" class="st7"/>
  <linearGradient id="g" x1="58.856" x2="58.856" y1="35.129" y2="19.803" gradientUnits="userSpaceOnUse">
    <stop offset="0" stop-color="#00a963"/>
    <stop offset=".993" stop-color="#55b74d"/>
  </linearGradient>
  <path fill="url(#g)" d="M58.6 19.8h.5v15.3h-.5z"/>
</svg>
