<svg xmlns="http://www.w3.org/2000/svg" xml:space="preserve" viewBox="0 0 865.466 145.971" width="216.367" height="35.5">
  <g fill="#005faf">
    <path d="M805.789 145.727c-14.715-1.377-25.892-5.868-33.489-13.455-6.373-6.367-9.59-13.828-10.448-24.242-.167-2.025-.142-2.172.492-2.91l.669-.777h23.904l.597.695c.467.542.637 1.161.775 2.817.965 11.566 8.225 18.187 21.544 19.647 4.348.476 11.619.217 15.006-.535 6.638-1.475 11.004-4.359 13.179-8.706 1.191-2.382 1.595-4.342 1.452-7.057-.24-4.569-3.033-7.696-8.99-10.064-3.153-1.254-8.623-2.463-18.9-4.18-5.66-.944-12.075-2.094-14.258-2.555-18.91-3.995-28.772-11.238-31.887-23.417-1.633-6.385-1.206-14.844 1.064-21.062 3.748-10.272 13.114-17.633 26.528-20.852 13.318-3.196 30.337-2.648 42.395 1.366 14.5 4.827 23.457 14.732 25.672 28.387.594 3.662.532 4.752-.308 5.412-.68.536-.966.549-12.002.549h-11.306l-.668-.669c-.428-.427-.735-1.113-.853-1.9-.593-3.952-2.62-8.088-5.284-10.787-3.16-3.2-7.23-5.134-12.856-6.11-3.884-.673-11.934-.418-15.354.486-5.022 1.327-8.577 3.82-10.366 7.268-1.212 2.338-1.636 4.166-1.642 7.081-.004 2.019.1 2.604.682 3.837 1.546 3.278 4.981 5.55 10.953 7.244 3.38.96 6.574 1.56 15.605 2.937 10.533 1.606 13.232 2.095 18.256 3.31 18.27 4.417 27.275 12.61 29.219 26.584.632 4.547.227 10.874-.958 14.956-3.492 12.027-14.411 20.975-30.378 24.893-6.052 1.485-9.578 1.874-17.859 1.97-4.147.047-8.731-.025-10.186-.16z"/>
    <path d="M694.531 145.84c-13.156-1.289-23.805-5.694-31.988-13.234-11.17-10.29-17.224-26.363-17.224-45.726 0-27.131 11.674-47.284 32.16-55.514 7.563-3.038 14.468-4.258 24.064-4.249 12.56.012 22.093 2.6 30.731 8.342 3.589 2.385 8.535 7.252 10.85 10.676 4.057 5.996 6.751 13.45 7.627 21.094.158 1.385.116 1.572-.495 2.183l-.667.667h-22.29l-.741-.741c-.477-.477-.81-1.16-.935-1.918-.295-1.804-1.694-6.02-2.584-7.792-2.43-4.834-5.838-8.377-10.12-10.52-7.01-3.51-17.434-3.308-24.721.48-6.98 3.627-11.688 10.921-13.739 21.285-1.084 5.48-1.227 7.324-1.227 15.875 0 5.354.121 9.186.339 10.716 2.463 17.326 8.84 25.86 21.4 28.639 2.906.642 10.58.637 13.148-.01 4.635-1.167 7.702-2.89 10.886-6.12 3.394-3.44 5.302-6.964 6.628-12.24.44-1.752.833-2.747 1.209-3.06.51-.425 1.492-.462 12.048-.462h11.492l.65.65c.83.83.829 1.649-.01 5.106-4.83 19.943-20.998 33.374-43.053 35.769-2.341.254-11.202.323-13.438.104z"/>
    <path d="M564.304 145.458c-22.425-1.726-38.023-17.633-42.522-43.364-2.911-16.649-.88-33.987 5.54-47.308 4.935-10.24 11.884-17.736 20.63-22.253 6.608-3.412 11.822-4.717 19.844-4.966 12.858-.4 22.77 3.1 30.974 10.935 2.46 2.35 2.963 2.719 3.388 2.49.276-.146.558-.419.629-.605.07-.186.016-2.295-.12-4.687-.268-4.715-.171-5.265 1.021-5.808.911-.415 24.153-.41 25.064.005.36.164.783.61.938.992.201.493.186 8.851-.053 28.872-.312 26.22-.28 38.1.186 70.18l.176 12.103-.662.662-.663.663h-24.856l-.58-.728c-.566-.711-.575-.84-.394-5.834.19-5.268.102-5.874-.855-5.874-.22 0-1.784 1.342-3.473 2.982-7.336 7.123-15.402 10.7-26.062 11.56-3.736.301-4.02.3-8.15-.017zm16.456-19.59c7.634-1.089 14.26-6.026 17.957-13.38 2.108-4.192 3.63-9.46 4.456-15.421.648-4.68.64-16.566-.013-21.035-1.547-10.56-4.72-17.76-10.044-22.785-5.573-5.26-13.234-7.383-21.88-6.065-12.644 1.928-20.24 11.33-22.664 28.057-.566 3.907-.642 15.506-.128 19.579.492 3.893 1.517 8.784 2.454 11.712 4.704 14.692 15.126 21.441 29.862 19.338z"/>
    <path d="M484.2 145.198c-4.867-.469-9.288-1.698-13.242-3.684-7.136-3.583-12.112-9.657-14.411-17.59-1.682-5.802-1.596-3.646-1.596-40.041 0-32.52-.01-33.168-.514-33.536-.41-.3-1.786-.376-6.793-.376h-6.28l-.549-.697c-.53-.674-.548-.995-.548-9.496 0-8.265.03-8.836.505-9.423.501-.62.56-.626 7.154-.757 5.328-.106 6.694-.206 6.878-.505.128-.207.164-6.184.082-13.4l-.148-13.025.69-.69.69-.69h24.558l.732.727.732.728-.19 12.87c-.138 9.266-.11 13.026.102 13.421.29.543.444.55 13.277.623l12.983.073.505.625c.475.587.506 1.155.506 9.423 0 8.5-.019 8.822-.548 9.496l-.549.697h-12.622c-10.995 0-12.697.053-13.21.412l-.588.412V81.32c0 20.35.095 31.208.285 32.573.615 4.421 2.288 6.853 5.547 8.065 1.684.626 1.85.635 11.334.656 9.09.02 9.646.049 9.989.517.29.397.362 2.369.362 9.99v9.495l-.73.73c-.66.66-1.07.775-4.168 1.18-6.742.88-15.164 1.16-20.224.672z"/>
    <path d="M407.458 1.155c-12.063 0-12.67.023-13.2.504-.545.493-.558.698-.558 9.047 0 8.528.001 8.544.588 8.955.512.359 2.216.412 13.23.412 12.288 0 12.655-.015 13.17-.53.506-.506.529-.881.529-8.954 0-8.23-.013-8.438-.557-8.93-.532-.48-1.139-.504-13.202-.504zm.267 28.443c-12.5 0-12.915.032-13.686 1.036-.25.326-.324 12.71-.33 55.927l-.009 55.51.65.648.649.65h12.55c11.963 0 12.58-.024 13.175-.506l.625-.505.068-55.605.068-55.605-.776-.775-.775-.775z"/>
    <path d="m205.6 142.726-.604-.642.197-55.506.197-55.507.745-.744.744-.745 11.942.074 11.943.074.528.653c.501.619.518.896.338 5.496-.175 4.44-.151 4.887.283 5.367.888.981 1.448.66 5.023-2.883 5.012-4.964 9.218-7.589 15.236-9.506 7.809-2.489 17.942-2.442 25.64.118 7.803 2.595 13.604 7.758 17.554 15.622.67 1.333 1.346 2.503 1.504 2.6.689.426 1.505-.215 2.77-2.176 7.019-10.872 16.325-16.723 28.347-17.821 7.4-.676 14.946.442 20.644 3.059 6.925 3.18 12.394 9.186 15.425 16.937 2.122 5.428 3.287 11.07 3.741 18.116.373 5.784.997 75.84.685 76.806-.13.403-.455.85-.722.992-.296.158-5.359.259-13.05.259h-12.565l-.573-.728-.572-.727.183-36.91c.204-40.933.227-40.229-1.467-44.299-3.536-8.493-12.754-13.754-21.608-12.331-7.701 1.237-13.896 6.48-16.423 13.9l-.721 2.117v77.966l-.625.506c-.595.482-1.211.506-13.175.506h-12.55l-.681-.68-.681-.682.165-20.023c.091-11.012.195-28.357.23-38.543l.064-18.521-.72-2.117c-2.294-6.733-7.515-11.747-14.502-13.928-1.638-.511-2.54-.615-5.283-.606-3.938.013-5.705.421-9.128 2.11-5.237 2.585-9.294 7.554-10.9 13.35-.538 1.94-.546 3.985-.21 52.786l.176 25.4-.571.727-.572.727h-25.798Z"/>
    <path d="M10.88 142.951c-3.765-1.012-7.347-3.84-9.107-7.189C.513 133.366 0 131.315 0 128.685c0-1.176.182-2.837.404-3.69 1.144-4.392 4.54-8.34 8.523-9.91.723-.284 12.791-3.576 26.82-7.313 14.027-3.738 26.124-7.097 26.883-7.466 2.908-1.412 5.465-4.416 6.586-7.737.727-2.153.652-5.968-.158-8.07-1.44-3.735-4.142-6.51-7.593-7.801-.821-.308-8.944-1.98-18.051-3.717-9.107-1.737-17.538-3.46-18.735-3.83-1.197-.37-3.578-1.378-5.292-2.241C9.868 62.116 3.174 53.557.76 43.092c-.68-2.946-.948-9.436-.514-12.46 1.282-8.94 5.666-16.917 12.325-22.425C17.926 3.778 23.757 1.201 30.668.211c3.023-.434 9.514-.166 12.46.513 11.613 2.68 20.98 10.782 25.385 21.96.307.78 2.406 7.982 4.664 16.006 2.258 8.023 4.44 15.303 4.848 16.176 1.784 3.808 5.195 6.971 8.74 8.104 3.786 1.21 8.313.543 11.738-1.73.966-.641 5.783-5.542 13.888-14.13 14.126-14.967 13.789-14.624 15.44-15.684 2.171-1.393 4.027-1.91 7.297-2.036 2.467-.094 3.27-.02 4.762.433 4.797 1.46 8.385 5.057 9.939 9.962l.587 1.852V66.11c0 23.006-.03 24.569-.487 26.061-1.587 5.18-5.541 9.022-10.615 10.314-2.01.512-5.418.515-7.368.007-1.825-.475-3.913-1.499-5.32-2.607-.57-.449-5.578-5.704-11.13-11.678-5.55-5.974-10.561-11.23-11.134-11.682-3.499-2.754-8.731-3.672-12.867-2.257-8.38 2.867-12.172 12.255-8.078 19.998.685 1.295 3.12 3.917 12.472 13.427 6.39 6.5 12.013 12.442 12.494 13.205 1.528 2.423 2.075 4.476 2.075 7.786 0 2.348-.117 3.252-.609 4.68-1.607 4.67-5.582 8.384-10.287 9.61-2.24.584-86.507.561-88.681-.023z"/>
  </g>
</svg>
