<svg xmlns="http://www.w3.org/2000/svg" xmlns:xlink="http://www.w3.org/1999/xlink" viewBox="0 0 1563 432">
  <title>OBIO®</title>
  <style>
    * {
      transition: fill 0.3s;
    }
    .t {
      fill: #132a4c;
    }
    .c1 {
      stop-color: #273f66;
    }
    .c2 {
      stop-color: #88acf0;
    }
    @media (prefers-color-scheme: dark) {
      .t {
        fill: #eaeae8;
      }
      .c1 {
        stop-color: #92b5de;
      }
      .c2 {
        stop-color: #dafea8;
      }
    }
  </style>
  <defs>
    <linearGradient id="a">
      <stop offset="0" class="c1"/>
      <stop offset="1" class="c2"/>
    </linearGradient>
    <linearGradient xlink:href="#a" id="b" x1="28" x2="426" y1="331" y2="105" gradientUnits="userSpaceOnUse"/>
  </defs>
  <path class="t" fill="#132a4c" d="M723.54 111a131 131.5 0 0 0-131.5 131.5 131 131.5 0 0 0 131.5 131.5 131 131.5 0 0 0 131.5-131.5A131 131.5 0 0 0 723.54 111Zm-.05 55a76.627 76.5 0 0 1 76.627 76.5A76.627 76.5 0 0 1 723.4 319a76.627 76.5 0 0 1-76.627-76.5 76.627 76.5 0 0 1 76.627-76.5zm514.325-56h15.175v264.32h-54.5V149.32a39.325 39.325 0 0 1 39.325-39.325ZM928.3 3.57a39.325 39.325 0 0 0-39.325 39.325v200.12h.1a131 131.5 0 0 0 131.5 131 131 131.5 0 0 0 131-131.5 131 131.5 0 0 0-131-131.5 131 131.5 0 0 0-77.04 25.335V3.57Zm92.16 162.425a76.627 76.5 0 0 1 76.625 76.5A76.627 76.5 0 0 1 1020.467 319a76.627 76.5 0 0 1-76.625-76.5 76.627 76.5 0 0 1 76.627-76.5zm407.065-55a131 131.5 0 0 0-131.5 131.5 131 131.5 0 0 0 131.5 131.5 131 131.5 0 0 0 131.5-131.5 131 131.5 0 0 0-131.5-131.5zm-.05 55a76.627 76.5 0 0 1 76.627 76.5A76.627 76.5 0 0 1 1427.485 319a76.627 76.5 0 0 1-76.627-76.5 76.627 76.5 0 0 1 76.627-76.5z"/>
  <path fill="url(#b)" d="M1225.5 3a36.5 37 0 0 0-36.5 37 36.5 37 0 0 0 36.5 37 36.5 37 0 0 0 36.5-37 36.5 37 0 0 0-36.5-37Zm-1052.935.223c-10.63-.155-21.47 3.72-30.045 12.295-6.915 6.917-10.08 13.67-12.4 26.48-2.42 13.305-5.12 20.435-10.533 27.787-9.57 13-25.515 20.81-63 30.86-21 5.635-28.717 9.395-37.6 18.42-16.835 16.93-20.523 40.855-9.835 63.815 2.12 4.555 5.185 8.57 10.7 14.04 8.75 8.66 16.543 13 27.743 15.485 17.57 3.887 36.673-1.8 49.955-14.895 10.74-10.58 14.847-19.93 17.143-39 5.27-43.8 24.875-67.17 59.97-71.5 5.29-.65 11.147-2.1 14.36-3.58 18.89-8.615 28.69-29 23.527-48.96-5.055-19.53-22.175-30.98-39.89-31.235Zm126.43 4.77A33 33 0 0 0 266 41a33 33 0 0 0 33 33A33 33 0 0 0 332 41a33 33 0 0 0-33-33Zm101.4 73.475a49.695 49.76 0 0 0-49.693 49.76 49.695 49.76 0 0 0 49.695 49.76 49.695 49.76 0 0 0 49.693-49.76 49.695 49.76 0 0 0-49.693-49.76zm5.13 137.71c-14.46.527-25.43 5.5-36 16.095-11.495 11.517-14.34 18.69-17.5 44.11-3.35 26.943-17.3 49.785-36 58.953-6.87 3.365-11.06 4.48-28.48 7.58-20.885 3.717-36.157 23.65-34.2 44.63 1.563 16.74 12.5 30.58 28.65 36.225 13.843 4.843 30.45 1.325 41.4-8.77 8.65-7.97 11.435-14.165 15.08-33.5 2.15-11.4 7.165-21 14.56-27.85 10.823-10 24.18-15.887 56.25-24.705 23.205-6.38 29.23-9.267 38.315-18.36 12.27-12.28 17.107-25 16.147-42.58-.815-14.86-5.88-26.31-16-36.18-10.53-10.26-21.22-14.923-35.785-15.6a77.565 77.565 0 0 0-6.42-.04zM66.55 251a49.56 49.835 0 0 0-49.56 49.835 49.56 49.835 0 0 0 49.56 49.835 49.56 49.835 0 0 0 49.555-49.835 49.56 49.835 0 0 0-49.555-49.835Zm101.455 107a33 33 0 0 0-33 33A33 33 0 0 0 168 424a33 33 0 0 0 33-33 33 33 0 0 0-33-33z"/>
</svg>

