<svg xmlns="http://www.w3.org/2000/svg" xmlns:xlink="http://www.w3.org/1999/xlink" width="156.3" height="43.2" viewBox="0 0 1563 432">
  <defs>
    <linearGradient id="a">
      <stop offset="0" stop-color="#92b5de"/>
      <stop offset="1" stop-color="#dafea8"/>
    </linearGradient>
    <linearGradient xlink:href="#a" id="b" x1="28" x2="426" y1="331" y2="105" gradientUnits="userSpaceOnUse"/>
  </defs>
  <path fill="#eaeae8" d="M723.541 111a131.474 131.498 0 0 0-131.473 131.498 131.474 131.498 0 0 0 131.473 131.498 131.474 131.498 0 0 0 131.475-131.498A131.474 131.498 0 0 0 723.54 111Zm-.05 55a76.627 76.501 0 0 1 76.627 76.5A76.627 76.501 0 0 1 723.492 319a76.627 76.501 0 0 1-76.627-76.502 76.627 76.501 0 0 1 76.627-76.5zm514.324-56h15.174v264.32h-54.5V149.322a39.325 39.325 0 0 1 39.325-39.325ZM928.31 3.572a39.325 39.325 0 0 0-39.325 39.324v200.12h.098a131.474 131.498 0 0 0 131.436 130.978 131.474 131.498 0 0 0 131.474-131.498 131.474 131.498 0 0 0-131.474-131.498 131.474 131.498 0 0 0-77.036 25.334V3.572Zm92.16 162.426a76.627 76.501 0 0 1 76.625 76.5A76.627 76.501 0 0 1 1020.467 319a76.627 76.501 0 0 1-76.625-76.502 76.627 76.501 0 0 1 76.627-76.5zm407.066-55a131.474 131.498 0 0 0-131.473 131.498 131.474 131.498 0 0 0 131.473 131.498 131.474 131.498 0 0 0 131.475-131.498 131.474 131.498 0 0 0-131.475-131.498zm-.05 55a76.627 76.501 0 0 1 76.627 76.5A76.627 76.501 0 0 1 1427.486 319a76.627 76.501 0 0 1-76.627-76.502 76.627 76.501 0 0 1 76.627-76.5z"/>
  <path fill="url(#b)" d="M1225.5 3a36.5 37 0 0 0-36.5 37 36.5 37 0 0 0 36.5 37 36.5 37 0 0 0 36.5-37 36.5 37 0 0 0-36.5-37Zm-1052.934.223c-10.628-.154-21.47 3.72-30.045 12.294-6.916 6.917-10.081 13.67-12.41 26.48-2.42 13.306-5.121 20.436-10.533 27.787-9.57 13-25.516 20.81-63 30.858-21.02 5.634-28.717 9.395-37.69 18.418-16.835 16.93-20.523 40.855-9.835 63.816 2.12 4.554 5.184 8.572 10.71 14.04 8.752 8.66 16.543 13 27.743 15.485 17.57 3.887 36.673-1.808 49.955-14.896 10.74-10.582 14.847-19.93 17.143-39 5.27-43.8 24.874-67.171 59.97-71.5 5.29-.652 11.147-2.112 14.362-3.578 18.892-8.615 28.69-29 23.527-48.961-5.054-19.53-22.176-30.978-39.89-31.234Zm126.428 4.771A33 33 0 0 0 266 41a33 33 0 0 0 33 33A33 33 0 0 0 332 41a33 33 0 0 0-33-33Zm101.39 73.475a49.694 49.76 0 0 0-49.693 49.76 49.694 49.76 0 0 0 49.694 49.76 49.694 49.76 0 0 0 49.693-49.76 49.694 49.76 0 0 0-49.693-49.76zm5.13 137.71c-14.46.527-25.431 5.503-36 16.096-11.496 11.517-14.34 18.688-17.5 44.112-3.35 26.943-17.3 49.784-36 58.953-6.868 3.366-11.06 4.48-28.48 7.582-20.884 3.717-36.157 23.648-34.198 44.63 1.563 16.74 12.51 30.58 28.65 36.226 13.843 4.843 30.45 1.325 41.403-8.771 8.648-7.971 11.434-14.164 15.078-33.51 2.15-11.41 7.165-21 14.56-27.852 10.823-10.02 24.182-15.887 56.25-24.705 23.206-6.38 29.23-9.267 38.316-18.361 12.27-12.28 17.107-25.032 16.147-42.578-.814-14.86-5.88-26.31-16-36.178-10.53-10.262-21.221-14.923-35.785-15.6a77.564 77.564 0 0 0-6.42-.042zM66.55 251a49.558 49.835 0 0 0-49.56 49.834 49.558 49.835 0 0 0 49.56 49.836 49.558 49.835 0 0 0 49.556-49.836 49.558 49.835 0 0 0-49.556-49.834Zm101.455 106.99a33 33 0 0 0-33 33A33 33 0 0 0 168 424a33 33 0 0 0 33-33 33 33 0 0 0-33-33z"/>
</svg>
