<svg xmlns="http://www.w3.org/2000/svg" xmlns:xlink="http://www.w3.org/1999/xlink" xml:space="preserve" viewBox="0 0 144.198 44.715" width="161.24" height="50">
  <defs>
    <linearGradient id="a">
      <stop offset="0" stop-color="#2a4266"/>
      <stop offset="1" stop-color="#86abef"/>
    </linearGradient>
    <linearGradient xlink:href="#a" id="b" x1="12.537" x2="44.046" y1="100.313" y2="71.819" gradientUnits="userSpaceOnUse"/>
  </defs>
  <path fill="url(#b)" d="M22.239 71.563c-.235.01-.484.057-.787.138-1.253.338-2.658 1.844-2.666 2.858-.003.395-.235 1.223-.515 1.84-.661 1.457-2.28 2.485-5.113 3.247-2.753.741-3.428 1.095-4.32 2.265-1.6 2.097-.954 5.482 1.311 6.872 2.19 1.342 5.51.487 6.648-1.712.212-.41.516-1.56.675-2.556.349-2.18 1.374-4.17 2.512-4.873.46-.284 1.481-.659 2.27-.831 2.771-.608 4.054-2.359 3.428-4.682-.317-1.179-.833-1.712-2.213-2.289-.49-.204-.84-.292-1.23-.277zm90.021.16c-.73-.02-1.514.153-2.051.507-1.863 1.228-1.543 4.464.525 5.31 1.974.809 4.366-.715 4.366-2.78 0-.906-.634-2.119-1.38-2.642-.359-.25-.892-.381-1.46-.396zm-79.234.248c-.335 0-.988.232-1.452.515-1.604.978-1.632 3.502-.051 4.609 1.464 1.026 3.948.07 4.33-1.665.357-1.63-1.14-3.461-2.827-3.459zm8.434 6.34c-1.377.045-2.711.721-3.42 2.131-1.156 2.303.017 5.347 2.347 6.084 2.927.927 6.05-1.706 5.566-4.691-.374-2.309-2.48-3.59-4.493-3.524zm1.158 11.657c-2.701.013-4.559 1.71-4.916 4.492-.486 3.778-2.158 5.764-5.217 6.202-1.586.227-2.746 1.176-3.115 2.548-.526 1.952.477 3.917 2.285 4.478 1.004.311 2.426.077 3.298-.544.713-.508.833-.754 1.724-3.547.605-1.9 1.628-2.717 4.472-3.573 3.218-.968 4.148-1.427 4.977-2.453 2.35-2.91.176-7.621-3.508-7.603zm-29.385 2.64c-1.896 0-3.75 1.644-4.132 3.663-.358 1.891 1.07 4.216 2.944 4.792 2.29.705 4.778-.766 5.438-3.215.663-2.463-1.59-5.24-4.25-5.24zm8.843 9.062c-.258-.006-.534.056-.935.176-2.165.649-2.74 3.331-1.039 4.85 2.226 1.99 5.542-.354 4.474-3.16-.248-.653-.683-1.122-1.373-1.48-.496-.258-.796-.379-1.127-.386z" transform="translate(-1.33 -66.414)"/>
  <path fill="#132a4c" d="M124.751 36.406c-3.741-1.171-6.99-4.287-7.811-8.13-.365-1.706-.268-3.508-.04-5.237.235-1.77 1.273-3.36 2.377-4.743 3.215-4.029 9.4-5.138 13.917-2.634 4.016 2.227 6.512 6.95 5.782 11.524-.7 4.39-4.085 8.24-8.439 9.25-1.894.438-3.9.422-5.786-.03zm5.95-5.153c1.319-.613 2.321-1.705 2.943-3.02 1.366-2.889.15-6.523-2.54-8.18-3.191-1.967-7.798-.394-9.167 3.077-1.164 2.952.123 6.582 2.915 8.06 1.2.769 2.67.88 4.042.606a7.24 7.24 0 0 0 1.808-.543zm-22.486-4.411c0-10.574.014-10.71 1.31-11.881.346-.314 1.135-.579 2.011-.675l1.441-.159v22.65h-4.762zM90.09 36.406c-4.044-1.282-6.78-4.182-7.818-8.287-.495-1.96-.53-2.807-.46-11.217.083-9.86.113-10.077 1.578-11.16.392-.29 1.307-.582 2.05-.653l1.343-.13V16.15l1-.51c4.423-2.256 9.497-1.583 13.038 1.73 3.705 3.465 4.63 8.63 2.37 13.222-.81 1.644-2.658 3.676-4.194 4.61-2.387 1.452-6.41 1.996-8.906 1.204zm5.854-5.14c2.278-1.173 3.54-3.182 3.54-5.637 0-3.004-1.775-5.363-4.665-6.204-4.765-1.385-9.116 3.125-7.78 8.063.411 1.521 2.639 3.798 4.12 4.21 1.428.398 3.545.207 4.785-.431zm-16.966-5.694a11.19 11.212 0 0 1-11.19 11.212A11.19 11.212 0 0 1 56.6 25.572 11.19 11.212 0 0 1 67.79 14.36a11.19 11.212 0 0 1 11.189 11.212Zm-11.19-6.416c-3.536 0-6.403 2.872-6.403 6.416 0 3.544 2.867 6.416 6.404 6.416 3.536 0 6.403-2.872 6.403-6.416 0-3.544-2.867-6.416-6.403-6.416z"/>
</svg>
