<svg xmlns="http://www.w3.org/2000/svg" width="200" height="50" viewBox="0 0 36.373 9.093">
  <path fill="currentcolor" d="
    M3.669 6.32c-.276.29-.67.442-1.142.442-.472 0-.869-.154-1.146-.443-.275-.29-.421-.703-.421-1.195 0-.491.145-.903.42-1.19.276-.29.67-.442 1.141-.442.473 0 .87.153 1.146.443.276.289.422.702.422 1.195 0 .49-.146.902-.42 1.19M2.528 2.67C.928 2.67 0 3.624 0 5.13c0 1.507.922 2.453 2.521 2.453 1.6 0 2.528-.953 2.528-2.46 0-1.506-.922-2.453-2.521-2.453m5.787 4.832V5.397c0-.546-.282-.872-.757-.872-.48 0-.777.334-.777.872v2.105h-.899V3.865h.9v.516c.266-.306.61-.584 1.197-.584.78 0 1.235.515 1.235 1.35v2.355Zm3.832-.127c-.171.105-.42.188-.766.188-.63 0-1.058-.251-1.058-1.093V4.576h-.434v-.712h.434v-.93h.898v.93h.889v.712h-.889v1.725c0 .313.167.485.468.485.167 0 .364-.043.458-.105zm3.005-1.131c0 .427-.383.738-.912.738-.405 0-.677-.218-.677-.543v-.013c0-.37.314-.6.82-.6.247 0 .498.043.69.12l.079.03Zm-.797-2.42c-.588 0-.973.104-1.354.267l.2.62c.262-.095.61-.195 1.024-.195.598 0 .941.295.941.808v.072a3.662 3.662 0 0 0-1.026-.132c-.843 0-1.442.378-1.442 1.198v.014c0 .72.548 1.094 1.215 1.094.55 0 .938-.18 1.225-.405v.337h.84v-2.11c0-.985-.497-1.568-1.623-1.568m2.55 3.678V3.865h.88v.732c.235-.502.536-.827 1.218-.8v.794h-.02c-.329.004-.597.096-.797.273-.266.236-.4.617-.4 1.133v1.505Zm3.745-3.618.019-.02h-.899v3.638h.899V3.865Zm.046-.552h-.953v-.784h.953zm0-.784-.019.019zm3.551 3.982c-.19.2-.464.306-.794.306-.326 0-.6-.108-.792-.312-.191-.203-.292-.492-.292-.837 0-.347.099-.637.286-.836.189-.201.463-.307.792-.307.328 0 .602.108.795.312.191.203.292.492.292.837 0 .348-.099.637-.287.836m-.794-2.732c-1.235 0-1.97.733-1.97 1.898 0 1.162.732 1.888 1.963 1.888 1.239 0 1.974-.733 1.974-1.895 0-1.165-.732-1.891-1.967-1.891M31.826 0c-3.09 0-4.546 1.457-4.546 4.547s1.457 4.546 4.546 4.546c3.09 0 4.547-1.457 4.547-4.546 0-3.09-1.458-4.547-4.547-4.547
    M35,2.38L35,2.395L35,2.43A3.116,3.116 0 0 133.4,5L33.4,5C33.337,5 33.3,5 33.211,5.005A3.112,3.112 0 0 131.855,7.804L31.827,7.824L31.797,7.804A3.12,3.12 0 0 130.431,5.22L30.431,5.216C30.431,5.145 30.435,5.076 30.439,5.006A3.111,3.111 0 0 128.695,2.433L28.692,2.398L28.724,2.383A3.116,3.116 0 0 131.644,2.492L31.648,2.495A3.388,3.388 0 0 131.825,2.605A3.112,3.112 0 0 135,2.38M33.863,3.438A2.383,2.383 0 0 034.093,2.895A2.348,2.348 0 0 032.425,3.134A.838,.838 0 0 132.529,3.348A.545,.545 0 0 132.538,3.646A.49,.49 0 0 132.488,3.769C32.388,3.941 32.174,4.067 31.911,4.149C32.009,3.836 31.851,3.558 31.647,3.382A2.367,2.367 0 0 029.558,2.897A2.347,2.347 0 0 030.597,4.222A.833,.833 0 0 130.729,4.026A.546,.546 0 0 130.984,3.869A.48,.48 0 0 131.114,3.851C31.314,3.851 31.53,3.974 31.732,4.161C31.412,4.233 31.251,4.509 31.201,4.773A2.366,2.366 0 0 031.471,6.353A2.421,2.421 0 0 031.825,6.824A2.348,2.348 0 0 032.453,5.26A.81,.81 0 0 132.218,5.243C32.126,5.227 32.025,5.17 31.955,5.102A.487,.487 0 0 131.875,5C31.775,4.824 31.773,4.576 31.833,4.307C32.056,4.548 32.376,4.551 32.628,4.461A2.363,2.363 0 0 033.862,3.438
  "/>
</svg>
