<svg id="surface1" xmlns="http://www.w3.org/2000/svg" width="212.062" height="27.479" viewBox="0 0 212.062 27.479">
  <g id="Group_1890" data-name="Group 1890" transform="translate(0 0)">
    <g id="Group_1889" data-name="Group 1889">
      <path id="Path_2869" data-name="Path 2869" d="M33.955-243.209a13.842,13.842,0,0,0,11.038-4.744l-3.769-3.757c-2.115,1.9-4,3.112-7.076,3.112-4.615,0-7.807-3.8-7.807-8.35v-.076c0-4.555,3.269-8.274,7.807-8.274a10,10,0,0,1,6.884,3l3.769-4.289c-2.5-2.429-5.538-4.1-10.615-4.1a13.594,13.594,0,0,0-14.037,13.74v.076A13.5,13.5,0,0,0,33.955-243.209Zm0,0" transform="translate(-20.148 270.688)" fill="#da291c"/>
    </g>
  </g>
  <g id="Group_1892" data-name="Group 1892" transform="translate(29.495 6.452)">
    <g id="Group_1891" data-name="Group 1891" transform="translate(0 0)">
      <path id="Path_2870" data-name="Path 2870" d="M20.764-185.108a7.975,7.975,0,0,0,6.23-2.581v2.2h5.653v-11.8c0-2.733-.692-4.972-2.231-6.49-1.461-1.442-3.769-2.278-6.961-2.278a18.393,18.393,0,0,0-8,1.632l1.461,4.4a15.336,15.336,0,0,1,5.692-1.1c2.923,0,4.423,1.328,4.423,3.72v.342a14.817,14.817,0,0,0-5.038-.835c-4.884,0-8.307,2.05-8.307,6.49v.076C13.688-187.309,16.88-185.108,20.764-185.108Zm1.769-3.985c-1.884,0-3.192-.911-3.192-2.467v-.076c0-1.822,1.538-2.809,4.038-2.809a9.164,9.164,0,0,1,3.73.759v1.024C27.109-190.573,25.263-189.093,22.533-189.093Zm0,0" transform="translate(-13.688 206.059)" fill="#da291c"/>
    </g>
  </g>
  <g id="Group_1894" data-name="Group 1894" transform="translate(55.26 6.301)">
    <g id="Group_1893" data-name="Group 1893" transform="translate(0)">
      <path id="Path_2871" data-name="Path 2871" d="M25.852-186.855H31.7V-198.2c0-2.733,1.423-4.137,3.654-4.137s3.538,1.4,3.538,4.137v11.348h5.846v-13.17c0-4.668-2.577-7.553-7-7.553a7.315,7.315,0,0,0-6.038,3.264V-207.2H25.852Zm0,0" transform="translate(-25.852 207.578)" fill="#da291c"/>
    </g>
  </g>
  <g id="Group_1896" data-name="Group 1896" transform="translate(80.407 0)">
    <g id="Group_1895" data-name="Group 1895" transform="translate(0)">
      <path id="Path_2872" data-name="Path 2872" d="M33.955-243.209a13.842,13.842,0,0,0,11.038-4.744l-3.769-3.757c-2.115,1.9-4,3.112-7.076,3.112-4.615,0-7.807-3.8-7.807-8.35v-.076c0-4.555,3.269-8.274,7.807-8.274a10,10,0,0,1,6.884,3l3.769-4.289c-2.5-2.429-5.538-4.1-10.615-4.1a13.594,13.594,0,0,0-14.037,13.74v.076A13.5,13.5,0,0,0,33.955-243.209Zm0,0" transform="translate(-20.148 270.688)" fill="#002554"/>
    </g>
  </g>
  <g id="Group_1898" data-name="Group 1898" transform="translate(109.545 0)">
    <g id="Group_1897" data-name="Group 1897" transform="translate(0)">
      <path id="Path_2873" data-name="Path 2873" d="M34.416-243.209c8.307,0,14.345-6.187,14.345-13.74v-.076c0-7.553-5.961-13.664-14.268-13.664s-14.345,6.187-14.345,13.74v.076C20.148-249.319,26.11-243.209,34.416-243.209Zm.077-5.389a8.121,8.121,0,0,1-8.153-8.35v-.076a7.994,7.994,0,0,1,8.076-8.274,8.121,8.121,0,0,1,8.153,8.35v.076A7.994,7.994,0,0,1,34.494-248.6Zm0,0" transform="translate(-20.148 270.688)" fill="#002554"/>
    </g>
  </g>
  <g id="Group_1900" data-name="Group 1900" transform="translate(139.851 0.456)">
    <g id="Group_1899" data-name="Group 1899">
      <path id="Path_2874" data-name="Path 2874" d="M20.009-239.367h5.23l10.884-26.758H29.738L22.7-247.413l-7.038-18.712H9.125Zm0,0" transform="translate(-9.125 266.125)" fill="#002554"/>
    </g>
  </g>
  <g id="Group_1902" data-name="Group 1902" transform="translate(173.046 0.456)">
    <g id="Group_1901" data-name="Group 1901" transform="translate(0)">
      <path id="Path_2875" data-name="Path 2875" d="M34.6-239.557H40.52v-26.568H34.6Zm0,0" transform="translate(-34.598 266.125)" fill="#002554"/>
    </g>
  </g>
  <g id="Group_1904" data-name="Group 1904" transform="translate(187.256 0.456)">
    <g id="Group_1903" data-name="Group 1903" transform="translate(0)">
      <path id="Path_2876" data-name="Path 2876" d="M31.934-239.557h10.5c8.461,0,14.306-5.807,14.306-13.284v-.076c0-7.477-5.845-13.208-14.306-13.208h-10.5Zm5.923-5.276v-16.017h4.576c4.846,0,8.115,3.3,8.115,8.008v.076c0,4.706-3.269,7.933-8.115,7.933Zm0,0" transform="translate(-31.934 266.125)" fill="#002554"/>
    </g>
  </g>
</svg>
