<svg xmlns="http://www.w3.org/2000/svg" xml:space="preserve" viewBox="0 0 236 77" width="236" height="77">
 	<path fill="#f33541" d="M42.54 61.6h12.1c-3.26.72-3.32 7.06 0 7.98h-12.1c-3.36-.55-3.51-7.06 0-7.98z"/>
	<path fill="#fb9644" d="M69.67 61.81v7.74l-12.27.02s-2.33-.45-2.32-3.94c0-3.5 2.23-3.8 2.23-3.8z"/>
	<path fill="#414091" d="M207.28 61.73h10.53l3.6 3.82-3.6 3.9h-10.53z"/>
	<path fill="#f1298c" d="M221.12 61.65h10.54l3.75 3.88-3.75 4.03h-10.54l3.79-4.07z"/>
	<path fill="#01a864" d="M77.23 69.37v-7.72h3.35c1.38 0 2.2 1.05 2.15 2.05-.04.82-.64 1.64-1.05 1.82.4.08 1.38.58 1.37 1.79 0 .92-.78 2.07-2.7 2.07h-3.12zm4.18-2.13c-.02-.67-.22-1.09-1.53-1.06l-1.31.01s-.02.12-.02 1.06v1.04h1.4c1.1-.03 1.49-.38 1.46-1.05zm-.13-3.4c0-.63-.56-.88-.98-.88h-1.76l-.02 1.86s1.46-.02 1.86 0c.6.01.9-.4.9-.98zm8.42-2.14h1.32v7.6H89.7zm9.68 7.06a4.2 4.2 0 0 1-1.12-5.01c.7-1.39 1.68-1.88 3.34-1.89 2.38 0 3.55.92 3.84 3.04a4.08 4.08 0 0 1-1.26 3.75c-1.07.9-3.66.95-4.8.1zm4.19-1.15c.53-.53.65-.91.65-2.07 0-1.9-.74-2.66-2.57-2.63-1.03.01-1.56.3-1.95.75-.43.47-.68 1.1-.58 2.17.13 1.45.91 2.43 2.62 2.43.9 0 1.33-.15 1.83-.65zm8.31 1.33c0-.78 0-.83-.02-1.22a7.4 7.4 0 0 0 2.24.53c1.37.01 1.55-.18 1.58-.78.04-.74-.86-1.13-1.9-1.77-1.68-1.02-2.32-1.91-1.8-2.87.34-.64 2.14-1.96 4.59-.7l-.02 1.22a8.3 8.3 0 0 0-1.85-.5c-1.17 0-1.44.25-1.44.7 0 .35 1.26 1.05 2.23 1.5 1 .45 1.71 1.36 1.69 2.67-.02.67-.6 1.05-1.07 1.3-.4.22-1.14.38-1.84.36a9.36 9.36 0 0 1-2.39-.44zm12.96-.15c-1.08-.69-1.51-1.49-1.52-3.12-.01-1.66.58-2.8 1.57-3.31a5.1 5.1 0 0 1 2.1-.54 8.77 8.77 0 0 1 2.35.34v1.12s-.94-.38-1.53-.42a3.83 3.83 0 0 0-2.18.38c-1.34.71-1.42 3.25-.44 4.25.52.53 1.02.83 2.53.73a4.98 4.98 0 0 0 1.68-.42l-.02 1.42s-1.12.25-2.22.25a4.4 4.4 0 0 1-2.32-.68zm11.65-7.07h1.32v7.6h-1.33zm8.47.07h5.49l-.02.94-4.14-.02v2.11l3.7.01V66l-3.7.02-.03 2.23 4.07.01v1.07h-5.38zm11.92 7.62.02-7.76 1.13.04 3.84 5.38.08-5.33h1.33l-.06 7.58h-1.2l-3.88-5.27-.08 5.38zm14.69-.62c-1.08-.7-1.51-1.5-1.52-3.13-.01-1.65.57-2.8 1.57-3.31a5.1 5.1 0 0 1 2.1-.53 8.77 8.77 0 0 1 2.35.33v1.12s-.94-.38-1.53-.41a3.83 3.83 0 0 0-2.18.37c-1.34.72-1.42 3.26-.44 4.26.52.53 1.02.82 2.53.73a4.76 4.76 0 0 0 1.67-.43v1.42s-1.13.26-2.23.26a4.4 4.4 0 0 1-2.32-.68zm11.47-6.95 5.5-.07v.95l-4.15-.01v2.11l3.72.03v1.35h-3.72v2.06h4.18v1.05l-5.52.01zm11.43 7.12c0-.78 0-.83-.02-1.22.26.12 1.45.52 2.25.53 1.36.01 1.54-.18 1.58-.78.04-.74-.86-1.13-1.9-1.77-1.69-1.02-2.32-1.9-1.8-2.87.33-.64 2.14-1.96 4.58-.7l-.01 1.22a9.7 9.7 0 0 0-1.86-.5c-1.16 0-1.43.25-1.43.7 0 .35 1.25 1.05 2.23 1.5.99.45 1.7 1.36 1.68 2.67-.01.67-.6 1.05-1.07 1.3a4 4 0 0 1-1.83.36 9.36 9.36 0 0 1-2.4-.44z"/>
	<path fill="#00aaea" d="M27.8 21.6h8.62v29.55q0 8.75-3.52 12.87-4.72 5.57-14.23 5.57-5.07 0-8.52-1.26-3.46-1.27-5.83-3.74Q1.94 62.15.8 58.63h9.54q1.26 1.46 3.26 2.18 2 .77 4.72.77 3.5 0 5.61-1.08 2.13-1.08 2.98-2.8.9-1.7.9-5.89-2.3 2.29-4.8 3.3-2.5.98-5.67.98-6.94 0-11.73-5Q.83 46.07.83 38.4q0-8.21 5.07-13.19 4.6-4.5 10.97-4.5 2.98 0 5.6 1.11 2.67 1.08 5.33 3.58zm-8.97 7.2q-4.09 0-6.75 2.76-2.66 2.73-2.66 6.88 0 4.3 2.72 7.07 2.73 2.75 6.85 2.75 4.02 0 6.62-2.7 2.63-2.68 2.63-7.06 0-4.3-2.63-7t-6.78-2.7zm59.83 12.55h-27.8q.6 3.68 3.2 5.87 2.63 2.15 6.7 2.15 4.84 0 8.33-3.39l7.29 3.42q-2.73 3.87-6.53 5.74-3.8 1.84-9.04 1.84-8.1 0-13.21-5.1-5.1-5.14-5.1-12.84 0-7.9 5.07-13.09 5.1-5.23 12.77-5.23 8.14 0 13.25 5.23 5.1 5.2 5.1 13.76zm-8.69-6.81q-.85-2.88-3.39-4.7-2.5-1.8-5.83-1.8-3.61 0-6.34 2.03-1.7 1.27-3.17 4.47zM84.61 21.6h8.62v3.52q2.94-2.48 5.32-3.43 2.41-.98 4.91-.98 5.14 0 8.72 3.58 3.01 3.04 3.01 9v22.8h-8.56V40.96q0-6.18-.57-8.2-.54-2.03-1.93-3.08-1.36-1.08-3.4-1.08-2.62 0-4.52 1.78-1.87 1.74-2.6 4.85-.38 1.61-.38 7V56.1H84.6Zm34.71 0h8.81l8.72 20.35 8.68-20.35h8.78l-14.67 34.48h-5.61zm44.51-14.2q2.28 0 3.9 1.65 1.65 1.64 1.65 3.99 0 2.31-1.62 3.96-1.61 1.62-3.86 1.62-2.32 0-3.97-1.65-1.61-1.68-1.61-4.06 0-2.28 1.61-3.9 1.62-1.61 3.9-1.61zm-4.34 14.2h8.68v34.48h-8.68zm17.47-.07h7.42v4.35a9.27 9.27 0 0 1 3.2-3.9 7.72 7.72 0 0 1 4.37-1.33c1.12 0 3.01.26 4.2.88l-4.65 7.28c-.93-.38-1.91-.42-2.4-.2-.96.45-1.41.66-2.22 2.08-.9 1.65-1.36 4.89-1.36 9.7l.03 1.68v13.95h-8.6zm45.29.07h8.62v34.48h-8.62v-3.64q-2.54 2.4-5.1 3.48-2.54 1.05-5.52 1.05-6.69 0-11.57-5.17-4.88-5.2-4.88-12.9 0-7.98 4.72-13.09 4.72-5.1 11.47-5.1 3.11 0 5.84 1.17 2.72 1.18 5.04 3.52zm-9.1 7.1q-4.03 0-6.69 2.85-2.66 2.82-2.66 7.26 0 4.47 2.7 7.35 2.72 2.89 6.68 2.89 4.09 0 6.78-2.83 2.7-2.85 2.7-7.44 0-4.5-2.7-7.3-2.69-2.78-6.81-2.78z" transform="translate(.5)"/>
</svg>

